# xmcd CD database file
#
# Track frame offsets:
#	150
#	15448
#	29182
#	42167
#	60068
#	79038
#	96190
#	127587
#	148783
#	171685
#	186585
#	201675
#	233091
#	259633
#	279599
#	299415
#	328466
#
# Disc length: 4607 seconds
#
# Revision: 0
# Processed by: cddbd v1.5.2PL0 Copyright (c) Steve Scherf et al.
# Submitted via: CDex 1.51
#
DISCID=0411fd11
DTITLE=Roomful Of Blues - (1982/83) with Big Joe Turner(1-9) and Eddie Vinson (10-17)
DYEAR=2010
DGENRE=Blues
TTITLE0=Crawdad Hole
TTITLE1=Red Sails In The Sunset
TTITLE2=Cocka-Doodle-Doo
TTITLE3=Jumpin` For Joe
TTITLE4=I Want A Little Girl
TTITLE5=Blues Train
TTITLE6=I Know You Love Me
TTITLE7=Last Night
TTITLE8=I Love The Way (My Baby Sings The Blues)
TTITLE9=House Of Joy
TTITLE10=He Was A Friend Of Mine
TTITLE11=Movin` With Lester
TTITLE12=No Bones
TTITLE13=That`s The Groovy Thing
TTITLE14=Past Sixty Blues
TTITLE15=Street Lights
TTITLE16=Farmer`s Daughter Blues
EXTD=YEAR: 2010
EXTT0=
EXTT1=
EXTT2=
EXTT3=
EXTT4=
EXTT5=
EXTT6=
EXTT7=
EXTT8=
EXTT9=
EXTT10=
EXTT11=
EXTT12=
EXTT13=
EXTT14=
EXTT15=
EXTT16=
PLAYORDER=
